<svg version="1.2" xmlns="http://www.w3.org/2000/svg" viewBox="0 0 512 512" width="512" height="512">
	<title>pen-to-square-solid-svg</title>
	<style>
		.s0 { fill: #14b2e3 } 
	</style>
	<path id="Layer" fill-rule="evenodd" class="s0" d="m490.3 40.3c21.9 21.9 21.9 57.3 0 79.2l-30.1 30.1-97.9-97.9 30.1-30c21.9-21.9 57.3-21.9 79.2 0zm-298.3 23.7c17.7 0 32 14.3 32 32 0 17.7-14.3 32-32 32h-96c-17.7 0-32 14.3-32 32v256c0 17.7 14.3 32 32 32h256c17.7 0 32-14.3 32-32v-96c0-17.7 14.3-32 32-32 17.7 0 32 14.3 32 32v96c0 53-43 96-96 96h-256c-53 0-96-43-96-96v-256c0-53 43-96 96-96zm147.7 10.3l98 98-167.3 167.4c-6.2 6.1-13.7 10.8-21.9 13.5l-88.8 29.6c-8.7 2.9-18.2 0.7-24.6-5.8-6.4-6.5-8.7-16-5.8-24.6l29.6-88.8c2.7-8.3 7.4-15.8 13.5-21.9z"/>
</svg>